<?xml version="1.0" standalone="no"?>
<!DOCTYPE svg PUBLIC "-//W3C//DTD SVG 20010904//EN"
 "http://www.w3.org/TR/2001/REC-SVG-20010904/DTD/svg10.dtd">
<svg version="1.0" xmlns="http://www.w3.org/2000/svg"
 width="400.000000pt" height="400.000000pt" viewBox="0 0 400.000000 400.000000"
 preserveAspectRatio="xMidYMid meet">

<g transform="translate(0.000000,400.000000) scale(0.100000,-0.100000)"
fill="#000000" stroke="none">
<path d="M1925 3540 c-3 -5 -12 -7 -20 -3 -8 3 -15 0 -15 -6 0 -7 -28 -11 -78
-11 -58 0 -88 -5 -117 -20 -22 -11 -48 -17 -61 -14 -13 3 -38 1 -56 -5 -30
-10 -133 -96 -183 -152 -11 -13 -38 -39 -60 -59 -22 -19 -55 -51 -75 -70 -19
-19 -41 -33 -47 -32 -7 2 -13 -2 -13 -8 0 -6 4 -9 9 -5 5 3 12 1 16 -5 3 -5
-1 -10 -9 -10 -10 0 -13 -6 -9 -17 4 -10 2 -14 -5 -9 -6 3 -13 2 -17 -3 -3 -6
-12 -8 -19 -5 -8 3 -17 0 -21 -6 -6 -9 -9 -9 -15 0 -5 9 -51 11 -166 10 -231
-4 -476 -4 -579 0 -49 1 -156 2 -237 1 l-148 -1 0 -1555 0 -1555 195 0 195 0
2 58 c0 31 2 134 4 227 2 122 8 198 23 270 11 55 23 147 26 205 9 131 27 216
65 295 24 50 49 79 140 161 144 128 259 203 505 325 l200 99 24 55 c24 56 99
135 127 135 22 0 16 37 -19 119 -19 42 -42 95 -52 118 -16 38 -20 41 -42 32
-42 -16 -77 -10 -125 20 -37 23 -53 44 -80 98 -43 88 -45 163 -8 238 30 60 62
73 109 44 38 -23 48 -44 30 -66 -12 -14 -11 -15 10 -8 20 6 22 4 16 -14 -9
-30 2 -43 25 -31 13 7 21 7 26 -2 14 -22 35 76 40 182 8 165 19 193 95 238 26
15 88 65 137 112 l91 85 173 14 c195 15 291 15 320 0 25 -13 76 -125 84 -182
7 -49 3 -52 -109 -88 -46 -14 -73 -29 -84 -46 -34 -51 -5 -214 33 -182 7 6 10
17 8 24 -4 8 7 20 25 30 30 15 31 15 43 -10 13 -30 52 -34 67 -7 9 15 10 15
11 -5 0 -19 -5 -23 -31 -23 -17 0 -28 -4 -24 -10 3 -6 -1 -7 -9 -4 -9 3 -16 1
-16 -5 0 -6 9 -11 20 -11 11 0 20 3 20 8 0 4 11 8 25 8 21 2 24 -1 14 -12 -14
-17 -5 -18 22 -3 11 5 17 13 15 17 -3 5 -1 14 4 22 6 10 10 6 15 -16 4 -16 14
-50 22 -76 20 -62 6 -263 -22 -321 -17 -37 -18 -37 -32 -17 -8 11 -37 32 -64
45 -52 27 -53 28 -50 91 2 27 -3 45 -13 53 -14 12 -19 10 -36 -12 -11 -14 -33
-28 -49 -32 -22 -5 -28 -11 -24 -25 4 -15 -3 -20 -42 -25 -48 -8 -80 -29 -69
-47 4 -6 -1 -17 -11 -25 -11 -7 -14 -13 -6 -13 23 0 6 -24 -22 -31 -22 -6 -27
-4 -25 9 2 12 -6 18 -28 20 -40 4 -97 -40 -92 -72 3 -18 9 -21 48 -18 25 2 61
7 80 12 26 7 254 7 313 1 11 -1 8 -25 -6 -45 -10 -14 -34 -20 -99 -26 -91 -9
-132 -25 -122 -50 4 -8 9 -26 12 -40 3 -14 9 -28 15 -31 10 -7 4 -44 -12 -69
-5 -8 -22 -15 -38 -16 -28 -1 -47 -6 -93 -27 -40 -17 -77 -19 -134 -7 -42 9
-64 21 -112 65 -32 30 -64 55 -70 55 -6 0 -21 11 -34 25 -32 34 -39 31 -30
-12 11 -47 71 -104 132 -123 73 -24 144 -72 207 -142 69 -75 86 -119 52 -137
-37 -20 -23 -28 47 -27 37 0 74 -4 82 -9 8 -5 21 -10 28 -11 32 -5 44 -17 63
-59 19 -44 22 -46 57 -43 36 3 37 5 63 78 33 91 73 298 70 360 -3 53 2 50 54
-42 37 -66 45 -74 111 -107 38 -20 84 -46 101 -58 16 -12 106 -59 198 -103
275 -131 392 -221 434 -334 10 -28 26 -96 35 -151 8 -55 27 -152 41 -215 24
-107 125 -609 139 -692 l7 -38 269 0 270 0 0 1556 0 1556 -482 -2 c-664 -2
-1125 0 -1110 7 19 7 15 36 -4 29 -13 -5 -15 -1 -10 19 7 27 46 73 46 54 0 -6
-7 -17 -15 -25 -17 -17 -20 -34 -5 -34 20 0 31 41 24 87 -5 37 -16 55 -52 90
-25 24 -59 51 -76 60 -17 9 -45 27 -62 39 -17 13 -40 24 -52 24 -28 0 -177 47
-224 71 -43 22 -45 22 -53 9z m-295 -75 c0 -1 -15 -2 -32 -2 -26 -1 -29 1 -13
7 17 6 45 3 45 -5z m721 -805 c32 -18 21 -29 -16 -17 -24 7 -31 13 -23 19 16
10 16 10 39 -2z m-71 -50 c-8 -6 -23 -10 -32 -10 -9 0 -25 -3 -35 -7 -10 -3
-15 -3 -11 1 9 11 82 35 88 30 2 -3 -2 -9 -10 -14z m-140 -517 c0 -5 -16 -9
-36 -11 -21 -1 -33 2 -29 8 7 12 65 14 65 3z m159 -149 c-12 -24 -39 -33 -39
-15 0 6 10 27 23 48 21 36 22 36 25 14 2 -13 -2 -35 -9 -47z m-49 -129 c0 -10
-10 -15 -30 -15 -16 0 -30 4 -30 9 0 5 9 7 20 4 11 -3 20 0 20 6 0 6 5 11 10
11 6 0 10 -7 10 -15z"/>
<path d="M738 3123 c12 -2 32 -2 45 0 12 2 2 4 -23 4 -25 0 -35 -2 -22 -4z"/>
<path d="M3298 3123 c12 -2 32 -2 45 0 12 2 2 4 -23 4 -25 0 -35 -2 -22 -4z"/>
<path d="M3858 3123 c12 -2 32 -2 45 0 12 2 2 4 -23 4 -25 0 -35 -2 -22 -4z"/>
<path d="M1649 2711 l-34 -15 40 -7 c65 -11 158 -43 163 -57 2 -7 -5 -12 -15
-12 -33 0 -132 -29 -159 -46 -39 -26 -23 -25 31 1 28 13 65 25 83 25 38 0 35
-15 -5 -24 -45 -11 -133 -48 -133 -56 0 -14 33 -21 41 -9 4 7 19 17 35 23 24
10 30 8 55 -17 23 -23 32 -26 48 -18 11 6 23 20 26 32 5 16 10 18 21 8 19 -16
18 -32 -6 -49 -28 -20 -25 -30 10 -30 34 0 52 26 29 41 -9 7 -5 7 14 3 26 -6
28 -5 21 20 -4 19 -2 26 9 26 9 0 17 14 21 35 4 19 10 35 15 35 4 0 14 11 21
25 10 19 10 27 1 39 -30 36 -268 55 -332 27z"/>
<path d="M1215 2470 c-3 -5 -2 -10 4 -10 5 0 13 5 16 10 3 6 2 10 -4 10 -5 0
-13 -4 -16 -10z"/>
<path d="M1317 2349 c-22 -13 -23 -44 -1 -35 9 3 20 6 25 6 11 0 12 27 1 34
-4 2 -15 0 -25 -5z"/>
<path d="M1996 2252 c-17 -19 -24 -32 -17 -37 14 -8 51 3 51 15 0 5 14 13 30
17 42 11 42 27 0 31 -28 2 -41 -3 -64 -26z"/>
<path d="M1473 1759 c-43 -46 -57 -76 -47 -98 4 -9 6 -19 6 -23 -1 -4 14 -36
33 -70 19 -35 35 -57 35 -50 0 7 4 10 10 7 6 -3 7 1 4 10 -5 11 -2 14 12 8 14
-5 16 -3 11 11 -4 10 -7 69 -7 132 0 66 -4 114 -10 114 -5 0 -26 -18 -47 -41z"/>
<path d="M2311 1244 c-6 -14 -9 -30 -5 -35 15 -26 71 17 60 46 -9 24 -42 17
-55 -11z"/>
<path d="M1027 206 c10 -13 19 -23 21 -21 7 6 -19 45 -29 45 -5 0 -2 -11 8
-24z"/>
<path d="M2851 133 c-10 -26 -10 -27 4 -9 8 11 15 23 15 28 0 15 -7 8 -19 -19z"/>
<path d="M1026 72 c-10 -17 5 -72 20 -72 11 0 13 8 8 27 -10 40 -20 57 -28 45z"/>
</g>
</svg>
